# xmcd
#
# Track frame offsets:
# 150
# 16473
# 37902
# 52044
# 66534
# 79973
# 95425
# 110118
# 122400
# 138632
# 149932
# 160452
#
# Disc length: 2318 seconds
#
#
# Revision: 0
# Processed by: cddbd v1.5.1PL0 Copyright (c) Steve Scherf et al.
# Submitted via: FreeRIP 2.60 
#
DISCID=b9090c0c
DTITLE=The Lamont Cranston Band - Up From The Alley
DYEAR=1980
DGENRE=Blues
TTITLE0=Keep On Drivin'
TTITLE1=Route 66
TTITLE2=My Baby Don't Rock Me Now
TTITLE3=Oughta Be A Law
TTITLE4=Don't Go
TTITLE5=Where's My Baby
TTITLE6=Workin' For Rosie
TTITLE7=One More Chance
TTITLE8=Double-Eye Whammy
TTITLE9=Shake It Baby
TTITLE10=Fattening Frogs For Snakes
TTITLE11=Tore Up
EXTD=Waterhouse Records\nPat Hayes - Vocals, Harmonica, Guitar\nCharlie Bingham - Guitar\nJim Novak - Drums\nMick Mazoff - Bass\nDick Perna - Saxophone\nBilly Shiell - Trumpet\nJoe Sherohman - Bass on Tracks3, 4, 7 and 9\nLarry Hayes - Guitar on Tracks 3
EXTD=, 6, 11
EXTT0=
EXTT1=
EXTT2=
EXTT3=
EXTT4=
EXTT5=
EXTT6=
EXTT7=
EXTT8=
EXTT9=
EXTT10=
EXTT11=
PLAYORDER=
